<svg width="101" height="102"><line x1="1.0000044" y1="101" x2="1" y2="1" style="stroke:rgb(0,0,0); stroke-width:1"/>
<line x1="1" y1="1" x2="2.0000043" y2="101" style="stroke:rgb(0,0,0); stroke-width:1"/>
<line x1="2.0000043" y1="101" x2="2" y2="1" style="stroke:rgb(2,2,2); stroke-width:1"/>
<line x1="2" y1="1" x2="3.0000043" y2="101" style="stroke:rgb(2,2,2); stroke-width:1"/>
<line x1="3.0000043" y1="101" x2="3" y2="1" style="stroke:rgb(5,5,5); stroke-width:1"/>
<line x1="3" y1="1" x2="4.0000043" y2="101" style="stroke:rgb(5,5,5); stroke-width:1"/>
<line x1="4.0000043" y1="101" x2="4" y2="1" style="stroke:rgb(7,7,7); stroke-width:1"/>
<line x1="4" y1="1" x2="5.0000043" y2="101" style="stroke:rgb(7,7,7); stroke-width:1"/>
<line x1="5.0000043" y1="101" x2="5" y2="1" style="stroke:rgb(10,10,10); stroke-width:1"/>
<line x1="5" y1="1" x2="6.0000043" y2="101" style="stroke:rgb(10,10,10); stroke-width:1"/>
<line x1="6.0000043" y1="101" x2="6" y2="1" style="stroke:rgb(12,12,12); stroke-width:1"/>
<line x1="6" y1="1" x2="7.0000043" y2="101" style="stroke:rgb(12,12,12); stroke-width:1"/>
<line x1="7.0000043" y1="101" x2="7" y2="1" style="stroke:rgb(15,15,15); stroke-width:1"/>
<line x1="7" y1="1" x2="8.000005" y2="101" style="stroke:rgb(15,15,15); stroke-width:1"/>
<line x1="8.000005" y1="101" x2="8" y2="1" style="stroke:rgb(18,18,18); stroke-width:1"/>
<line x1="8" y1="1" x2="9.000005" y2="101" style="stroke:rgb(18,18,18); stroke-width:1"/>
<line x1="9.000005" y1="101" x2="9" y2="1" style="stroke:rgb(20,20,20); stroke-width:1"/>
<line x1="9" y1="1" x2="10.000005" y2="101" style="stroke:rgb(20,20,20); stroke-width:1"/>
<line x1="10.000005" y1="101" x2="10" y2="1" style="stroke:rgb(23,23,23); stroke-width:1"/>
<line x1="10" y1="1" x2="11.000005" y2="101" style="stroke:rgb(23,23,23); stroke-width:1"/>
<line x1="11.000005" y1="101" x2="11" y2="1" style="stroke:rgb(25,25,25); stroke-width:1"/>
<line x1="11" y1="1" x2="12.000005" y2="101" style="stroke:rgb(25,25,25); stroke-width:1"/>
<line x1="12.000005" y1="101" x2="12" y2="1" style="stroke:rgb(28,28,28); stroke-width:1"/>
<line x1="12" y1="1" x2="13.000005" y2="101" style="stroke:rgb(28,28,28); stroke-width:1"/>
<line x1="13.000005" y1="101" x2="13" y2="1" style="stroke:rgb(30,30,30); stroke-width:1"/>
<line x1="13" y1="1" x2="14.000005" y2="101" style="stroke:rgb(30,30,30); stroke-width:1"/>
<line x1="14.000005" y1="101" x2="14" y2="1" style="stroke:rgb(33,33,33); stroke-width:1"/>
<line x1="14" y1="1" x2="15.000005" y2="101" style="stroke:rgb(33,33,33); stroke-width:1"/>
<line x1="15.000005" y1="101" x2="15" y2="1" style="stroke:rgb(36,36,36); stroke-width:1"/>
<line x1="15" y1="1" x2="16.000004" y2="101" style="stroke:rgb(36,36,36); stroke-width:1"/>
<line x1="16.000004" y1="101" x2="16" y2="1" style="stroke:rgb(38,38,38); stroke-width:1"/>
<line x1="16" y1="1" x2="17.000004" y2="101" style="stroke:rgb(38,38,38); stroke-width:1"/>
<line x1="17.000004" y1="101" x2="17" y2="1" style="stroke:rgb(41,41,41); stroke-width:1"/>
<line x1="17" y1="1" x2="18.000004" y2="101" style="stroke:rgb(41,41,41); stroke-width:1"/>
<line x1="18.000004" y1="101" x2="18" y2="1" style="stroke:rgb(43,43,43); stroke-width:1"/>
<line x1="18" y1="1" x2="19.000004" y2="101" style="stroke:rgb(43,43,43); stroke-width:1"/>
<line x1="19.000004" y1="101" x2="19" y2="1" style="stroke:rgb(46,46,46); stroke-width:1"/>
<line x1="19" y1="1" x2="20.000004" y2="101" style="stroke:rgb(46,46,46); stroke-width:1"/>
<line x1="20.000004" y1="101" x2="20" y2="1" style="stroke:rgb(48,48,48); stroke-width:1"/>
<line x1="20" y1="1" x2="21.000004" y2="101" style="stroke:rgb(48,48,48); stroke-width:1"/>
<line x1="21.000004" y1="101" x2="21" y2="1" style="stroke:rgb(51,51,51); stroke-width:1"/>
<line x1="21" y1="1" x2="22.000004" y2="101" style="stroke:rgb(51,51,51); stroke-width:1"/>
<line x1="22.000004" y1="101" x2="22" y2="1" style="stroke:rgb(54,54,54); stroke-width:1"/>
<line x1="22" y1="1" x2="23.000004" y2="101" style="stroke:rgb(54,54,54); stroke-width:1"/>
<line x1="23.000004" y1="101" x2="23" y2="1" style="stroke:rgb(56,56,56); stroke-width:1"/>
<line x1="23" y1="1" x2="24.000004" y2="101" style="stroke:rgb(56,56,56); stroke-width:1"/>
<line x1="24.000004" y1="101" x2="24" y2="1" style="stroke:rgb(59,59,59); stroke-width:1"/>
<line x1="24" y1="1" x2="25.000004" y2="101" style="stroke:rgb(59,59,59); stroke-width:1"/>
<line x1="25.000004" y1="101" x2="25" y2="1" style="stroke:rgb(61,61,61); stroke-width:1"/>
<line x1="25" y1="1" x2="26.000004" y2="101" style="stroke:rgb(61,61,61); stroke-width:1"/>
<line x1="26.000004" y1="101" x2="26" y2="1" style="stroke:rgb(64,64,64); stroke-width:1"/>
<line x1="26" y1="1" x2="27.000004" y2="101" style="stroke:rgb(64,64,64); stroke-width:1"/>
<line x1="27.000004" y1="101" x2="27" y2="1" style="stroke:rgb(66,66,66); stroke-width:1"/>
<line x1="27" y1="1" x2="28.000004" y2="101" style="stroke:rgb(66,66,66); stroke-width:1"/>
<line x1="28.000004" y1="101" x2="28" y2="1" style="stroke:rgb(69,69,69); stroke-width:1"/>
<line x1="28" y1="1" x2="29.000004" y2="101" style="stroke:rgb(69,69,69); stroke-width:1"/>
<line x1="29.000004" y1="101" x2="29" y2="1" style="stroke:rgb(72,72,72); stroke-width:1"/>
<line x1="29" y1="1" x2="30.000004" y2="101" style="stroke:rgb(72,72,72); stroke-width:1"/>
<line x1="30.000004" y1="101" x2="30" y2="1" style="stroke:rgb(74,74,74); stroke-width:1"/>
<line x1="30" y1="1" x2="31.000004" y2="101" style="stroke:rgb(74,74,74); stroke-width:1"/>
<line x1="31.000004" y1="101" x2="31" y2="1" style="stroke:rgb(77,77,77); stroke-width:1"/>
<line x1="31" y1="1" x2="32.000004" y2="101" style="stroke:rgb(77,77,77); stroke-width:1"/>
<line x1="32.000004" y1="101" x2="32" y2="1" style="stroke:rgb(79,79,79); stroke-width:1"/>
<line x1="32" y1="1" x2="33.000004" y2="101" style="stroke:rgb(79,79,79); stroke-width:1"/>
<line x1="33.000004" y1="101" x2="33" y2="1" style="stroke:rgb(82,82,82); stroke-width:1"/>
<line x1="33" y1="1" x2="34.000004" y2="101" style="stroke:rgb(82,82,82); stroke-width:1"/>
<line x1="34.000004" y1="101" x2="34" y2="1" style="stroke:rgb(85,85,85); stroke-width:1"/>
<line x1="34" y1="1" x2="35.000004" y2="101" style="stroke:rgb(85,85,85); stroke-width:1"/>
<line x1="35.000004" y1="101" x2="35" y2="1" style="stroke:rgb(87,87,87); stroke-width:1"/>
<line x1="35" y1="1" x2="36.000004" y2="101" style="stroke:rgb(87,87,87); stroke-width:1"/>
<line x1="36.000004" y1="101" x2="36" y2="1" style="stroke:rgb(90,90,90); stroke-width:1"/>
<line x1="36" y1="1" x2="37.000004" y2="101" style="stroke:rgb(90,90,90); stroke-width:1"/>
<line x1="37.000004" y1="101" x2="37" y2="1" style="stroke:rgb(92,92,92); stroke-width:1"/>
<line x1="37" y1="1" x2="38.000004" y2="101" style="stroke:rgb(92,92,92); stroke-width:1"/>
<line x1="38.000004" y1="101" x2="38" y2="1" style="stroke:rgb(95,95,95); stroke-width:1"/>
<line x1="38" y1="1" x2="39.000004" y2="101" style="stroke:rgb(95,95,95); stroke-width:1"/>
<line x1="39.000004" y1="101" x2="39" y2="1" style="stroke:rgb(97,97,97); stroke-width:1"/>
<line x1="39" y1="1" x2="40.000004" y2="101" style="stroke:rgb(97,97,97); stroke-width:1"/>
<line x1="40.000004" y1="101" x2="40" y2="1" style="stroke:rgb(100,100,100); stroke-width:1"/>
<line x1="40" y1="1" x2="41.000004" y2="101" style="stroke:rgb(100,100,100); stroke-width:1"/>
<line x1="41.000004" y1="101" x2="41" y2="1" style="stroke:rgb(103,103,103); stroke-width:1"/>
<line x1="41" y1="1" x2="42.000004" y2="101" style="stroke:rgb(103,103,103); stroke-width:1"/>
<line x1="42.000004" y1="101" x2="42" y2="1" style="stroke:rgb(105,105,105); stroke-width:1"/>
<line x1="42" y1="1" x2="43.000004" y2="101" style="stroke:rgb(105,105,105); stroke-width:1"/>
<line x1="43.000004" y1="101" x2="43" y2="1" style="stroke:rgb(108,108,108); stroke-width:1"/>
<line x1="43" y1="1" x2="44.000004" y2="101" style="stroke:rgb(108,108,108); stroke-width:1"/>
<line x1="44.000004" y1="101" x2="44" y2="1" style="stroke:rgb(110,110,110); stroke-width:1"/>
<line x1="44" y1="1" x2="45.000004" y2="101" style="stroke:rgb(110,110,110); stroke-width:1"/>
<line x1="45.000004" y1="101" x2="45" y2="1" style="stroke:rgb(113,113,113); stroke-width:1"/>
<line x1="45" y1="1" x2="46.000004" y2="101" style="stroke:rgb(113,113,113); stroke-width:1"/>
<line x1="46.000004" y1="101" x2="46" y2="1" style="stroke:rgb(115,115,115); stroke-width:1"/>
<line x1="46" y1="1" x2="47.000004" y2="101" style="stroke:rgb(115,115,115); stroke-width:1"/>
<line x1="47.000004" y1="101" x2="47" y2="1" style="stroke:rgb(118,118,118); stroke-width:1"/>
<line x1="47" y1="1" x2="48.000004" y2="101" style="stroke:rgb(118,118,118); stroke-width:1"/>
<line x1="48.000004" y1="101" x2="48" y2="1" style="stroke:rgb(121,121,121); stroke-width:1"/>
<line x1="48" y1="1" x2="49.000004" y2="101" style="stroke:rgb(121,121,121); stroke-width:1"/>
<line x1="49.000004" y1="101" x2="49" y2="1" style="stroke:rgb(123,123,123); stroke-width:1"/>
<line x1="49" y1="1" x2="50.000004" y2="101" style="stroke:rgb(123,123,123); stroke-width:1"/>
<line x1="50.000004" y1="101" x2="50" y2="1" style="stroke:rgb(126,126,126); stroke-width:1"/>
<line x1="50" y1="1" x2="51.000004" y2="101" style="stroke:rgb(126,126,126); stroke-width:1"/>
<line x1="51.000004" y1="101" x2="51" y2="1" style="stroke:rgb(128,128,128); stroke-width:1"/>
<line x1="51" y1="1" x2="52.000004" y2="101" style="stroke:rgb(128,128,128); stroke-width:1"/>
<line x1="52.000004" y1="101" x2="52" y2="1" style="stroke:rgb(131,131,131); stroke-width:1"/>
<line x1="52" y1="1" x2="53.000004" y2="101" style="stroke:rgb(131,131,131); stroke-width:1"/>
<line x1="53.000004" y1="101" x2="53" y2="1" style="stroke:rgb(133,133,133); stroke-width:1"/>
<line x1="53" y1="1" x2="54.000004" y2="101" style="stroke:rgb(133,133,133); stroke-width:1"/>
<line x1="54.000004" y1="101" x2="54" y2="1" style="stroke:rgb(136,136,136); stroke-width:1"/>
<line x1="54" y1="1" x2="55.000004" y2="101" style="stroke:rgb(136,136,136); stroke-width:1"/>
<line x1="55.000004" y1="101" x2="55" y2="1" style="stroke:rgb(139,139,139); stroke-width:1"/>
<line x1="55" y1="1" x2="56.000004" y2="101" style="stroke:rgb(139,139,139); stroke-width:1"/>
<line x1="56.000004" y1="101" x2="56" y2="1" style="stroke:rgb(141,141,141); stroke-width:1"/>
<line x1="56" y1="1" x2="57.000004" y2="101" style="stroke:rgb(141,141,141); stroke-width:1"/>
<line x1="57.000004" y1="101" x2="57" y2="1" style="stroke:rgb(144,144,144); stroke-width:1"/>
<line x1="57" y1="1" x2="58.000004" y2="101" style="stroke:rgb(144,144,144); stroke-width:1"/>
<line x1="58.000004" y1="101" x2="58" y2="1" style="stroke:rgb(146,146,146); stroke-width:1"/>
<line x1="58" y1="1" x2="59.000004" y2="101" style="stroke:rgb(146,146,146); stroke-width:1"/>
<line x1="59.000004" y1="101" x2="59" y2="1" style="stroke:rgb(149,149,149); stroke-width:1"/>
<line x1="59" y1="1" x2="60.000004" y2="101" style="stroke:rgb(149,149,149); stroke-width:1"/>
<line x1="60.000004" y1="101" x2="60" y2="1" style="stroke:rgb(151,151,151); stroke-width:1"/>
<line x1="60" y1="1" x2="61.000004" y2="101" style="stroke:rgb(151,151,151); stroke-width:1"/>
<line x1="61.000004" y1="101" x2="61" y2="1" style="stroke:rgb(154,154,154); stroke-width:1"/>
<line x1="61" y1="1" x2="62.000004" y2="101" style="stroke:rgb(154,154,154); stroke-width:1"/>
<line x1="62.000004" y1="101" x2="62" y2="1" style="stroke:rgb(157,157,157); stroke-width:1"/>
<line x1="62" y1="1" x2="63.000004" y2="101" style="stroke:rgb(157,157,157); stroke-width:1"/>
<line x1="63.000004" y1="101" x2="63" y2="1" style="stroke:rgb(159,159,159); stroke-width:1"/>
<line x1="63" y1="1" x2="64.00001" y2="101" style="stroke:rgb(159,159,159); stroke-width:1"/>
<line x1="64.00001" y1="101" x2="64" y2="1" style="stroke:rgb(162,162,162); stroke-width:1"/>
<line x1="64" y1="1" x2="65.00001" y2="101" style="stroke:rgb(162,162,162); stroke-width:1"/>
<line x1="65.00001" y1="101" x2="65" y2="1" style="stroke:rgb(164,164,164); stroke-width:1"/>
<line x1="65" y1="1" x2="66.00001" y2="101" style="stroke:rgb(164,164,164); stroke-width:1"/>
<line x1="66.00001" y1="101" x2="66" y2="1" style="stroke:rgb(167,167,167); stroke-width:1"/>
<line x1="66" y1="1" x2="67.00001" y2="101" style="stroke:rgb(167,167,167); stroke-width:1"/>
<line x1="67.00001" y1="101" x2="67" y2="1" style="stroke:rgb(170,170,170); stroke-width:1"/>
<line x1="67" y1="1" x2="68.00001" y2="101" style="stroke:rgb(170,170,170); stroke-width:1"/>
<line x1="68.00001" y1="101" x2="68" y2="1" style="stroke:rgb(172,172,172); stroke-width:1"/>
<line x1="68" y1="1" x2="69.00001" y2="101" style="stroke:rgb(172,172,172); stroke-width:1"/>
<line x1="69.00001" y1="101" x2="69" y2="1" style="stroke:rgb(175,175,175); stroke-width:1"/>
<line x1="69" y1="1" x2="70.00001" y2="101" style="stroke:rgb(175,175,175); stroke-width:1"/>
<line x1="70.00001" y1="101" x2="70" y2="1" style="stroke:rgb(177,177,177); stroke-width:1"/>
<line x1="70" y1="1" x2="71.00001" y2="101" style="stroke:rgb(177,177,177); stroke-width:1"/>
<line x1="71.00001" y1="101" x2="71" y2="1" style="stroke:rgb(180,180,180); stroke-width:1"/>
<line x1="71" y1="1" x2="72.00001" y2="101" style="stroke:rgb(180,180,180); stroke-width:1"/>
<line x1="72.00001" y1="101" x2="72" y2="1" style="stroke:rgb(182,182,182); stroke-width:1"/>
<line x1="72" y1="1" x2="73.00001" y2="101" style="stroke:rgb(182,182,182); stroke-width:1"/>
<line x1="73.00001" y1="101" x2="73" y2="1" style="stroke:rgb(185,185,185); stroke-width:1"/>
<line x1="73" y1="1" x2="74.00001" y2="101" style="stroke:rgb(185,185,185); stroke-width:1"/>
<line x1="74.00001" y1="101" x2="74" y2="1" style="stroke:rgb(188,188,188); stroke-width:1"/>
<line x1="74" y1="1" x2="75.00001" y2="101" style="stroke:rgb(188,188,188); stroke-width:1"/>
<line x1="75.00001" y1="101" x2="75" y2="1" style="stroke:rgb(190,190,190); stroke-width:1"/>
<line x1="75" y1="1" x2="76.00001" y2="101" style="stroke:rgb(190,190,190); stroke-width:1"/>
<line x1="76.00001" y1="101" x2="76" y2="1" style="stroke:rgb(193,193,193); stroke-width:1"/>
<line x1="76" y1="1" x2="77.00001" y2="101" style="stroke:rgb(193,193,193); stroke-width:1"/>
<line x1="77.00001" y1="101" x2="77" y2="1" style="stroke:rgb(195,195,195); stroke-width:1"/>
<line x1="77" y1="1" x2="78.00001" y2="101" style="stroke:rgb(195,195,195); stroke-width:1"/>
<line x1="78.00001" y1="101" x2="78" y2="1" style="stroke:rgb(198,198,198); stroke-width:1"/>
<line x1="78" y1="1" x2="79.00001" y2="101" style="stroke:rgb(198,198,198); stroke-width:1"/>
<line x1="79.00001" y1="101" x2="79" y2="1" style="stroke:rgb(200,200,200); stroke-width:1"/>
<line x1="79" y1="1" x2="80.00001" y2="101" style="stroke:rgb(200,200,200); stroke-width:1"/>
<line x1="80.00001" y1="101" x2="80" y2="1" style="stroke:rgb(203,203,203); stroke-width:1"/>
<line x1="80" y1="1" x2="81.00001" y2="101" style="stroke:rgb(203,203,203); stroke-width:1"/>
<line x1="81.00001" y1="101" x2="81" y2="1" style="stroke:rgb(206,206,206); stroke-width:1"/>
<line x1="81" y1="1" x2="82.00001" y2="101" style="stroke:rgb(206,206,206); stroke-width:1"/>
<line x1="82.00001" y1="101" x2="82" y2="1" style="stroke:rgb(208,208,208); stroke-width:1"/>
<line x1="82" y1="1" x2="83.00001" y2="101" style="stroke:rgb(208,208,208); stroke-width:1"/>
<line x1="83.00001" y1="101" x2="83" y2="1" style="stroke:rgb(211,211,211); stroke-width:1"/>
<line x1="83" y1="1" x2="84.00001" y2="101" style="stroke:rgb(211,211,211); stroke-width:1"/>
<line x1="84.00001" y1="101" x2="84" y2="1" style="stroke:rgb(213,213,213); stroke-width:1"/>
<line x1="84" y1="1" x2="85.00001" y2="101" style="stroke:rgb(213,213,213); stroke-width:1"/>
<line x1="85.00001" y1="101" x2="85" y2="1" style="stroke:rgb(216,216,216); stroke-width:1"/>
<line x1="85" y1="1" x2="86.00001" y2="101" style="stroke:rgb(216,216,216); stroke-width:1"/>
<line x1="86.00001" y1="101" x2="86" y2="1" style="stroke:rgb(218,218,218); stroke-width:1"/>
<line x1="86" y1="1" x2="87.00001" y2="101" style="stroke:rgb(218,218,218); stroke-width:1"/>
<line x1="87.00001" y1="101" x2="87" y2="1" style="stroke:rgb(221,221,221); stroke-width:1"/>
<line x1="87" y1="1" x2="88.00001" y2="101" style="stroke:rgb(221,221,221); stroke-width:1"/>
<line x1="88.00001" y1="101" x2="88" y2="1" style="stroke:rgb(224,224,224); stroke-width:1"/>
<line x1="88" y1="1" x2="89.00001" y2="101" style="stroke:rgb(224,224,224); stroke-width:1"/>
<line x1="89.00001" y1="101" x2="89" y2="1" style="stroke:rgb(226,226,226); stroke-width:1"/>
<line x1="89" y1="1" x2="90.00001" y2="101" style="stroke:rgb(226,226,226); stroke-width:1"/>
<line x1="90.00001" y1="101" x2="90" y2="1" style="stroke:rgb(229,229,229); stroke-width:1"/>
<line x1="90" y1="1" x2="91.00001" y2="101" style="stroke:rgb(229,229,229); stroke-width:1"/>
<line x1="91.00001" y1="101" x2="91" y2="1" style="stroke:rgb(231,231,231); stroke-width:1"/>
<line x1="91" y1="1" x2="92.00001" y2="101" style="stroke:rgb(231,231,231); stroke-width:1"/>
<line x1="92.00001" y1="101" x2="92" y2="1" style="stroke:rgb(234,234,234); stroke-width:1"/>
<line x1="92" y1="1" x2="93.00001" y2="101" style="stroke:rgb(234,234,234); stroke-width:1"/>
<line x1="93.00001" y1="101" x2="93" y2="1" style="stroke:rgb(236,236,236); stroke-width:1"/>
<line x1="93" y1="1" x2="94.00001" y2="101" style="stroke:rgb(236,236,236); stroke-width:1"/>
<line x1="94.00001" y1="101" x2="94" y2="1" style="stroke:rgb(239,239,239); stroke-width:1"/>
<line x1="94" y1="1" x2="95.00001" y2="101" style="stroke:rgb(239,239,239); stroke-width:1"/>
<line x1="95.00001" y1="101" x2="95" y2="1" style="stroke:rgb(242,242,242); stroke-width:1"/>
<line x1="95" y1="1" x2="96.00001" y2="101" style="stroke:rgb(242,242,242); stroke-width:1"/>
<line x1="96.00001" y1="101" x2="96" y2="1" style="stroke:rgb(244,244,244); stroke-width:1"/>
<line x1="96" y1="1" x2="97.00001" y2="101" style="stroke:rgb(244,244,244); stroke-width:1"/>
<line x1="97.00001" y1="101" x2="97" y2="1" style="stroke:rgb(247,247,247); stroke-width:1"/>
<line x1="97" y1="1" x2="98.00001" y2="101" style="stroke:rgb(247,247,247); stroke-width:1"/>
<line x1="98.00001" y1="101" x2="98" y2="1" style="stroke:rgb(249,249,249); stroke-width:1"/>
<line x1="98" y1="1" x2="99.00001" y2="101" style="stroke:rgb(249,249,249); stroke-width:1"/>
<line x1="99.00001" y1="101" x2="99" y2="1" style="stroke:rgb(252,252,252); stroke-width:1"/>
<line x1="99" y1="1" x2="100.00001" y2="101" style="stroke:rgb(252,252,252); stroke-width:1"/></svg>